<?xml version="1.0" encoding="utf-8"?>
<!-- Generator: Adobe Illustrator 16.0.0, SVG Export Plug-In . SVG Version: 6.00 Build 0)  -->
<!DOCTYPE svg PUBLIC "-//W3C//DTD SVG 1.1//EN" "http://www.w3.org/Graphics/SVG/1.1/DTD/svg11.dtd">
<svg version="1.1" id="Layer_1" xmlns="http://www.w3.org/2000/svg" xmlns:xlink="http://www.w3.org/1999/xlink" x="0px" y="0px"
	 width="400px" height="130px" viewBox="0 0 400 130" enable-background="new 0 0 400 130" xml:space="preserve">
<g>
	<g>
		<g>
			<polygon fill="#19AF92" points="187.895,18.73 168.256,30.143 148.488,18.73 168.128,7.317 			"/>
		</g>
		<g>
			<polygon fill="#19AF92" points="188.457,19.546 188.263,44.189 168.625,55.601 168.818,30.959 			"/>
		</g>
		<g>
			<polygon fill="#19AF92" points="167.692,30.957 167.499,55.599 147.732,44.187 147.926,19.544 			"/>
		</g>
	</g>
	<g>
		<g>
			<polygon fill="#19AF92" points="210.577,31.019 201.063,36.547 191.489,31.019 201.002,25.49 			"/>
		</g>
		<g>
			<polygon fill="#19AF92" points="211.016,31.605 210.922,43.542 201.41,49.07 201.503,37.133 			"/>
		</g>
		<g>
			<polygon fill="#19AF92" points="200.623,37.133 200.531,49.069 190.956,43.542 191.049,31.604 			"/>
		</g>
	</g>
	<g>
		<g>
			<polygon fill="#19AF92" points="201.808,53.445 192.295,58.972 182.72,53.445 192.232,47.917 			"/>
		</g>
		<g>
			<polygon fill="#19AF92" points="202.248,54.031 202.154,65.968 192.642,71.497 192.736,59.559 			"/>
		</g>
		<g>
			<polygon fill="#19AF92" points="191.856,59.559 191.762,71.494 182.187,65.968 182.281,54.03 			"/>
		</g>
	</g>
	<g>
		<g>
			<polygon fill="#19AF92" points="241.22,74.08 233.029,78.841 224.785,74.08 232.976,69.321 			"/>
		</g>
		<g>
			<polygon fill="#19AF92" points="241.455,74.42 241.374,84.701 233.184,89.46 233.265,79.181 			"/>
		</g>
		<g>
			<polygon fill="#19AF92" points="232.794,79.181 232.715,89.46 224.47,84.699 224.55,74.42 			"/>
		</g>
	</g>
	<g>
		<g>
			<polygon fill="#19AF92" points="231.425,47.291 219.778,54.06 208.053,47.291 219.701,40.522 			"/>
		</g>
		<g>
			<polygon fill="#19AF92" points="231.759,47.774 231.645,62.391 219.998,69.16 220.111,54.544 			"/>
		</g>
		<g>
			<polygon fill="#19AF92" points="219.443,54.543 219.329,69.158 207.605,62.391 207.72,47.774 			"/>
		</g>
	</g>
	<g>
		<g>
			<polygon fill="#19AF92" points="220.045,72.553 207.706,79.807 195.287,72.553 207.625,65.3 			"/>
		</g>
		<g>
			<polygon fill="#19AF92" points="220.398,73.072 220.277,88.737 207.938,95.992 208.06,80.328 			"/>
		</g>
		<g>
			<polygon fill="#19AF92" points="207.354,80.326 207.231,95.99 194.812,88.737 194.933,73.07 			"/>
		</g>
	</g>
</g>
<g>
	<g>
		<path fill="#19AF92" d="M139.977,108.725h-14.605v7.303h14.605v3.64h-18.245v-14.582h18.245"/>
		<path fill="#19AF92" d="M157.709,108.725h-14.606v-3.64h18.246v14.582h-18.246v-9.099h10.08v3.64h-6.394v1.819h10.92V108.725z"/>
		<path fill="#19AF92" d="M164.475,105.085h17.058v3.645h-6.726l0.042,10.938h-3.642v-10.942h-6.733V105.085z"/>
		<path fill="#19AF92" d="M202.904,108.725h-14.606v7.303h14.606v3.64h-18.246v-14.582h18.246"/>
		<path fill="#19AF92" d="M219.956,110.568v3.64H209.67v5.459h-3.641v-14.582h3.641v5.483H219.956z"/>
		<path fill="#19AF92" d="M226.422,119.667v-14.582h3.641v10.942h6.697v-9.271h3.661v9.271h6.65v-10.942h3.663v14.582H226.422z"/>
		<path fill="#19AF92" d="M268.468,108.725h-14.606v-3.64h18.245v14.582h-18.245v-9.099h10.079v3.64h-6.392v1.819h10.919V108.725z"
			/>
		<path fill="#19AF92" d="M278.897,110.545h10.941v-5.46h3.641v14.582h-18.246v-3.663h14.605v-1.796h-14.583v-9.123h3.642V110.545z"
			/>
	</g>
	<rect x="219.642" y="105.085" fill="#19AF92" width="3.655" height="14.582"/>
</g>
</svg>
