<?xml version="1.0" encoding="utf-8"?>
<!-- Generator: Adobe Illustrator 16.0.0, SVG Export Plug-In . SVG Version: 6.00 Build 0)  -->
<!DOCTYPE svg PUBLIC "-//W3C//DTD SVG 1.1//EN" "http://www.w3.org/Graphics/SVG/1.1/DTD/svg11.dtd">
<svg version="1.1" id="Layer_1" xmlns="http://www.w3.org/2000/svg" xmlns:xlink="http://www.w3.org/1999/xlink" x="0px" y="0px"
	 width="1024px" height="1024px" viewBox="0 0 1024 1024" enable-background="new 0 0 1024 1024" xml:space="preserve">
<g>
	<g>
		<polygon fill="#19AF92" points="466.257,255.086 358.532,317.688 250.103,255.086 357.83,192.484 		"/>
	</g>
	<g>
		<polygon fill="#19AF92" points="469.345,259.562 468.284,394.737 360.562,457.339 361.618,322.167 		"/>
	</g>
	<g>
		<polygon fill="#19AF92" points="355.444,322.156 354.385,457.329 245.956,394.729 247.016,259.551 		"/>
	</g>
</g>
<g>
	<g>
		<polygon fill="#19AF92" points="599.59,327.566 547.406,357.89 494.884,327.566 547.065,297.242 		"/>
	</g>
	<g>
		<polygon fill="#19AF92" points="601.083,329.733 600.569,395.213 548.39,425.538 548.903,360.06 		"/>
	</g>
	<g>
		<polygon fill="#19AF92" points="545.909,360.056 545.399,425.53 492.875,395.209 493.388,329.729 		"/>
	</g>
</g>
<g>
	<g>
		<polygon fill="#19AF92" points="536.604,447.298 485.441,477.028 433.944,447.298 485.105,417.565 		"/>
	</g>
	<g>
		<polygon fill="#19AF92" points="538.068,449.421 537.565,513.623 486.405,543.354 486.906,479.155 		"/>
	</g>
	<g>
		<polygon fill="#19AF92" points="483.975,479.153 483.472,543.346 431.975,513.619 432.477,449.417 		"/>
	</g>
</g>
<g>
	<g>
		<polygon fill="#19AF92" points="758.771,558.705 713.84,584.816 668.614,558.705 713.546,532.597 		"/>
	</g>
	<g>
		<polygon fill="#19AF92" points="760.061,560.571 759.618,616.955 714.688,643.066 715.129,586.687 		"/>
	</g>
	<g>
		<polygon fill="#19AF92" points="712.551,586.683 712.113,643.06 666.884,616.952 667.325,560.568 		"/>
	</g>
</g>
<g>
	<g>
		<polygon fill="#19AF92" points="711.639,416.045 647.748,453.173 583.434,416.045 647.328,378.915 		"/>
	</g>
	<g>
		<polygon fill="#19AF92" points="713.471,418.698 712.842,498.876 648.954,536.008 649.579,455.832 		"/>
	</g>
	<g>
		<polygon fill="#19AF92" points="645.917,455.828 645.289,535.993 580.978,498.871 581.603,418.693 		"/>
	</g>
</g>
<g>
	<g>
		<polygon fill="#19AF92" points="638.687,544.566 571.004,584.356 502.874,544.566 570.56,504.774 		"/>
	</g>
	<g>
		<polygon fill="#19AF92" points="640.625,547.41 639.957,633.338 572.279,673.131 572.943,587.207 		"/>
	</g>
	<g>
		<polygon fill="#19AF92" points="569.065,587.203 568.398,673.117 500.271,633.33 500.935,547.402 		"/>
	</g>
</g>
<g>
	<g>
		<path fill="#19AF92" d="M128.941,769.298H46.161v41.391h82.781v20.626H25.533v-82.646h103.408"/>
		<path fill="#19AF92" d="M229.445,769.298h-82.782v-20.629h103.412v82.646H146.663v-51.569h57.128v20.629h-36.235v10.314h61.889
			V769.298z"/>
		<path fill="#19AF92" d="M267.792,748.669h96.678v20.657h-38.117l0.241,61.988h-20.64v-62.017h-38.162V748.669z"/>
		<path fill="#19AF92" d="M485.592,769.298H402.81v41.391h82.783v20.626H382.184v-82.646h103.408"/>
		<path fill="#19AF92" d="M582.242,779.745v20.629h-58.305v30.94h-20.631v-82.646h20.631v31.076H582.242z"/>
		<path fill="#19AF92" d="M618.883,831.314v-82.646h20.637v62.02h37.955V758.14h20.752v52.549h37.689v-62.02h20.766v82.646H618.883z
			"/>
		<path fill="#19AF92" d="M857.186,769.298h-82.783v-20.629h103.405v82.646H774.402v-51.569h57.127v20.629h-36.231v10.314h61.888
			V769.298z"/>
		<path fill="#19AF92" d="M916.294,779.612h62.017v-30.943h20.63v82.646H895.535v-20.762h82.775v-10.179h-82.652v-51.705h20.636
			V779.612z"/>
	</g>
	<rect x="580.454" y="748.669" fill="#19AF92" width="20.715" height="82.646"/>
</g>
</svg>
