<?xml version="1.0" standalone="no"?>
<!DOCTYPE svg PUBLIC "-//W3C//DTD SVG 20010904//EN"
 "http://www.w3.org/TR/2001/REC-SVG-20010904/DTD/svg10.dtd">
<svg version="1.0" xmlns="http://www.w3.org/2000/svg"
 width="1600.000000pt" height="691.000000pt" viewBox="0 0 1600.000000 691.000000"
 preserveAspectRatio="xMidYMid meet">

<g transform="translate(0.000000,691.000000) scale(0.100000,-0.100000)"
fill="#000000" stroke="none">
<path d="M0 3455 l0 -3455 8000 0 8000 0 0 3455 0 3455 -8000 0 -8000 0 0
-3455z m15000 295 l0 -1810 -6995 0 -6995 0 0 1810 0 1810 6995 0 6995 0 0
-1810z m-10029 -2080 c22 -12 26 -59 7 -78 -13 -13 -57 -16 -74 -4 -20 14 -25
45 -9 68 17 26 44 30 76 14z m1909 -104 l0 -93 48 24 c82 43 172 19 216 -57
16 -27 21 -58 24 -172 l5 -138 -52 0 -51 0 0 133 c0 119 -2 136 -19 151 -30
27 -90 31 -127 8 -38 -24 -44 -50 -44 -188 l0 -104 -45 0 -45 0 0 265 0 265
45 0 45 0 0 -94z m1525 47 c22 -12 49 -31 60 -43 l20 -22 -28 -24 -27 -23 -36
24 c-85 58 -194 38 -256 -46 -42 -57 -35 -159 15 -216 61 -70 151 -83 228 -34
l45 28 30 -24 29 -24 -33 -28 c-42 -36 -93 -51 -173 -51 -105 0 -197 56 -233
140 -62 149 11 312 162 361 44 14 153 4 197 -18z m-6987 -25 l3 -37 -138 -3
-138 -3 -3 -62 -3 -63 121 0 120 0 0 -40 0 -40 -120 0 -121 0 3 -67 3 -68 143
-3 142 -3 0 -34 0 -35 -190 0 -190 0 0 250 0 250 183 -2 182 -3 3 -37z m10252
2 l0 -40 -135 0 -135 0 0 -65 0 -65 120 0 120 0 0 -40 0 -40 -120 0 -120 0 0
-70 0 -70 140 0 140 0 0 -35 0 -35 -185 0 -185 0 0 250 0 250 180 0 180 0 0
-40z m-5130 -35 l0 -45 55 0 55 0 0 -35 0 -35 -55 0 -55 0 0 -96 c0 -52 5
-104 11 -115 14 -26 48 -39 77 -28 19 7 24 5 33 -18 15 -40 -10 -56 -84 -51
-47 4 -63 10 -85 31 -26 26 -27 32 -31 152 l-3 125 -29 0 c-26 0 -29 3 -29 35
0 32 2 35 30 35 29 0 30 2 30 45 l0 45 40 0 40 0 0 -45z m3448 -2 l3 -43 50 0
49 0 0 -35 0 -35 -51 0 -51 0 4 -110 c2 -61 8 -114 14 -120 13 -13 41 -16 69
-7 17 6 23 1 32 -24 11 -28 10 -31 -13 -40 -34 -12 -98 -12 -126 2 -51 23 -63
55 -67 182 l-3 117 -29 0 c-26 0 -29 3 -29 35 0 32 2 35 30 35 28 0 30 2 30
38 0 48 6 54 50 50 34 -3 35 -5 38 -45z m-8161 -44 c15 -6 38 -19 49 -30 l22
-21 39 26 c58 39 126 44 183 14 71 -37 83 -67 88 -230 l5 -138 -52 0 -51 0 0
129 c0 157 -9 176 -85 176 -39 0 -51 -5 -71 -28 -23 -26 -24 -35 -24 -153 l0
-124 -45 0 -45 0 0 130 c0 116 -2 132 -20 150 -27 27 -62 34 -102 21 -52 -17
-61 -41 -66 -178 l-4 -123 -44 0 -44 0 0 190 0 190 45 0 c37 0 45 -3 45 -19 0
-17 3 -17 47 5 51 26 87 30 130 13z m847 -22 c99 -55 122 -203 45 -291 -59
-68 -183 -86 -250 -37 l-29 22 0 -96 0 -95 -40 0 -40 0 0 260 0 260 40 0 c34
0 40 -3 40 -21 0 -21 1 -21 27 -4 61 41 136 41 207 2z m451 22 c54 -15 120
-82 135 -138 14 -54 0 -121 -35 -167 -55 -73 -180 -96 -266 -51 -145 77 -125
304 31 352 56 17 84 18 135 4z m1216 -24 c48 -31 79 -90 79 -149 l0 -45 -140
1 c-78 0 -143 -2 -146 -5 -12 -12 10 -49 39 -68 40 -24 109 -25 148 -2 34 20
62 10 67 -26 7 -46 -134 -78 -219 -49 -85 28 -132 95 -131 184 0 59 17 96 60
137 65 62 170 71 243 22z m439 -10 c0 -43 -1 -45 -30 -45 -16 0 -40 -5 -53
-11 -42 -19 -51 -47 -55 -171 l-4 -118 -44 0 -44 0 0 190 0 190 45 0 c42 0 45
-2 45 -27 l0 -26 24 22 c23 22 64 38 99 40 14 1 17 -7 17 -44z m650 23 c69
-36 80 -67 80 -230 l0 -138 -39 0 -39 0 -4 131 c-3 129 -3 131 -31 155 -31 26
-58 30 -106 13 -50 -17 -61 -51 -61 -184 l0 -115 -45 0 -45 0 0 190 0 190 40
0 c33 0 40 -3 40 -20 0 -24 13 -26 30 -5 31 37 119 43 180 13z m497 -8 c42
-25 43 -25 43 0 0 17 7 20 40 20 l40 0 0 -172 c-1 -228 -11 -268 -83 -322 -51
-38 -220 -32 -285 10 -21 14 -22 16 -6 45 16 33 16 33 89 5 103 -39 195 1 195
84 0 16 -1 30 -3 30 -1 0 -20 -9 -42 -20 -79 -40 -188 -14 -242 57 -54 70 -35
202 35 252 65 45 153 50 219 11z m1615 20 c76 -21 137 -102 138 -181 l0 -37
-150 2 c-145 1 -150 0 -144 -19 3 -11 19 -32 35 -47 24 -23 38 -28 83 -28 38
0 61 6 78 20 l25 19 23 -24 c26 -28 21 -39 -30 -65 -55 -28 -142 -27 -200 3
-122 62 -146 211 -50 307 55 55 116 71 192 50z m1288 -35 c0 -43 -1 -45 -30
-45 -16 0 -40 -5 -53 -11 -42 -19 -51 -47 -55 -171 l-4 -118 -44 0 -44 0 0
190 0 190 45 0 c38 0 45 -3 45 -20 0 -24 13 -26 30 -5 13 15 60 32 93 34 14 1
17 -7 17 -44z m335 34 c73 -20 135 -111 135 -199 0 -21 -3 -21 -152 -19 -171
2 -175 0 -113 -58 29 -28 42 -33 82 -33 30 0 60 7 79 19 l32 19 21 -24 c12
-14 19 -30 15 -35 -14 -23 -91 -49 -146 -49 -66 0 -96 10 -143 47 -110 88 -74
280 62 328 47 17 76 18 128 4z m498 -16 c56 -32 67 -70 67 -225 l0 -138 -40 0
c-33 0 -40 3 -40 20 0 20 0 20 -32 0 -22 -13 -51 -20 -86 -20 -89 0 -142 41
-142 110 0 75 55 110 175 110 l75 0 0 29 c0 20 -8 35 -22 45 -28 20 -98 20
-145 1 -45 -19 -40 -20 -57 14 -14 26 -14 30 0 42 48 40 187 46 247 12z m828
2 c66 -34 99 -95 99 -180 0 -84 -35 -137 -112 -170 -126 -52 -275 31 -286 158
-8 94 44 173 133 206 40 14 124 7 166 -14z m449 -20 c0 -44 -1 -45 -31 -45
-76 0 -99 -45 -99 -195 l0 -105 -45 0 -45 0 0 190 0 190 45 0 c37 0 45 -3 45
-19 0 -17 3 -17 47 5 70 36 83 33 83 -21z m1112 35 c35 -10 98 -59 98 -77 0
-4 -12 -16 -26 -24 -25 -16 -29 -15 -62 7 -40 28 -81 30 -122 9 -43 -22 -60
-53 -60 -108 0 -42 5 -54 34 -83 44 -44 99 -47 145 -9 29 25 31 25 61 10 34
-18 36 -22 15 -52 -37 -53 -166 -68 -248 -28 -114 54 -131 233 -31 313 60 48
124 62 196 42z m486 -14 c135 -70 134 -285 -2 -347 -99 -45 -216 -12 -270 74
-65 106 -18 239 100 283 46 17 129 12 172 -10z m541 -4 c51 -38 61 -75 61
-224 l0 -138 -40 0 -40 0 0 120 c0 67 -5 130 -11 144 -25 53 -114 59 -160 10
-22 -24 -24 -35 -27 -150 l-4 -124 -44 0 -44 0 0 190 0 190 45 0 c39 0 45 -3
45 -22 0 -20 1 -20 19 -4 43 39 153 44 200 8z m503 -4 c60 -33 88 -86 88 -166
0 -88 -24 -132 -92 -166 -153 -77 -324 29 -305 190 11 101 111 180 215 170 28
-2 71 -15 94 -28z m496 17 c20 -9 43 -23 50 -33 10 -14 16 -14 30 -4 103 75
218 63 264 -29 15 -27 18 -60 18 -171 l0 -138 -45 0 -45 0 0 128 c0 144 -8
167 -63 177 -41 8 -82 -7 -103 -39 -12 -20 -16 -52 -18 -143 l-1 -118 -42 -3
-43 -3 0 125 c0 68 -3 132 -6 141 -4 8 -20 23 -36 31 -39 20 -88 11 -119 -22
-22 -24 -24 -35 -28 -150 l-3 -124 -44 0 -44 0 0 190 0 190 45 0 c39 0 45 -3
45 -22 0 -19 2 -20 18 -6 42 37 112 46 170 23z m-10622 -130 c26 -74 50 -135
53 -135 3 0 28 61 56 136 l50 135 40 -3 40 -3 32 -90 c19 -49 41 -110 49 -133
9 -24 20 -40 24 -35 4 4 29 65 55 136 l48 127 33 0 c19 0 34 -2 34 -5 0 -3
-29 -84 -65 -180 -36 -97 -65 -180 -65 -185 0 -6 -19 -10 -43 -10 l-44 0 -48
130 c-27 71 -50 128 -52 126 -2 -1 -25 -59 -53 -127 l-49 -124 -44 -3 -45 -3
-25 78 c-14 43 -44 129 -66 191 l-40 112 38 0 38 0 49 -135z m1524 -55 l0
-190 -40 0 -40 0 0 190 0 190 40 0 40 0 0 -190z m9647 178 c5 -7 15 -29 22
-48 36 -96 86 -210 93 -210 5 0 13 12 19 28 6 15 31 75 56 135 l45 107 39 0
c21 0 39 -4 39 -8 0 -10 -125 -301 -169 -394 -42 -89 -77 -118 -142 -118 -28
0 -63 7 -79 15 -29 15 -29 15 -12 45 11 19 22 28 32 24 44 -16 71 -16 91 2 43
39 43 43 -42 236 -45 100 -83 186 -86 191 -8 13 84 8 94 -5z"/>
<path d="M1180 3750 l0 -1660 1690 0 1690 0 0 1660 0 1660 -1690 0 -1690 0 0
-1660z m1100 1249 c192 -30 346 -179 386 -371 52 -248 -119 -484 -382 -529
-188 -33 -391 71 -472 241 -132 280 15 591 312 655 77 17 78 17 156 4z m1642
-679 c121 -37 232 -130 288 -239 29 -58 43 -142 38 -229 -10 -182 -136 -341
-319 -402 -53 -18 -81 -21 -160 -18 -87 3 -103 7 -173 41 -174 86 -267 250
-253 447 8 116 46 200 126 281 126 126 291 169 453 119z m-1432 -1000 c147
-24 279 -118 338 -241 137 -286 -23 -605 -329 -660 -239 -43 -473 124 -525
373 -49 232 114 470 359 523 78 17 79 17 157 5z"/>
<path d="M10723 4840 c-405 -51 -718 -268 -888 -615 -69 -141 -96 -258 -102
-440 -12 -351 93 -616 336 -848 163 -154 357 -250 586 -288 110 -18 154 -20
285 -15 241 9 301 20 450 83 134 57 216 111 317 207 246 234 353 482 353 816
0 311 -95 549 -305 768 -211 221 -472 328 -815 337 -80 2 -177 0 -217 -5z
m380 -369 c346 -89 565 -403 544 -776 -20 -339 -223 -596 -543 -687 -65 -18
-103 -22 -209 -21 -235 1 -383 61 -542 220 -77 77 -99 106 -137 185 -56 114
-74 181 -81 306 -14 224 58 412 220 578 114 116 256 188 416 213 89 14 240 5
332 -18z"/>
<path d="M5357 4813 c-3 -5 -4 -80 -3 -168 l1 -160 487 -5 487 -5 -107 -124
c-59 -68 -167 -194 -239 -280 l-132 -156 -1 -142 0 -143 118 0 c236 -1 359
-31 447 -111 72 -66 99 -134 93 -234 -13 -206 -193 -315 -498 -301 -193 8
-370 63 -521 161 -67 43 -72 45 -85 28 -7 -10 -14 -21 -14 -25 0 -4 -31 -65
-70 -137 -38 -71 -70 -132 -70 -135 0 -11 140 -97 205 -127 202 -92 329 -115
625 -113 330 2 490 55 655 219 121 120 185 278 185 455 0 207 -81 369 -245
485 -94 68 -192 106 -327 129 l-38 7 77 92 c42 51 159 190 260 309 l183 217 0
135 0 136 -734 0 c-404 0 -737 -3 -739 -7z"/>
<path d="M7330 3736 l0 -1085 496 -1 c638 0 752 11 981 99 275 107 503 343
597 619 87 255 71 610 -39 840 -94 198 -280 388 -481 490 -61 31 -156 61 -284
90 -115 25 -117 25 -692 29 l-578 5 0 -1086z m1185 710 c134 -41 238 -99 325
-182 89 -85 141 -168 178 -284 24 -76 27 -100 27 -235 0 -171 -13 -233 -72
-353 -47 -96 -156 -212 -251 -269 -89 -53 -217 -99 -317 -112 -42 -6 -209 -11
-371 -11 l-294 0 0 741 0 741 343 -4 c338 -5 343 -5 432 -32z"/>
<path d="M12170 4650 l0 -170 360 0 360 0 2 -912 3 -913 198 -3 197 -3 0 916
0 915 360 0 360 0 0 170 0 170 -920 0 -920 0 0 -170z"/>
<path d="M2502 1427 c-48 -27 -68 -86 -52 -148 13 -49 57 -79 115 -79 68 1
105 45 105 125 0 40 -5 52 -34 81 -27 27 -42 34 -72 34 -22 -1 -49 -6 -62 -13z"/>
<path d="M3000 1423 c-52 -36 -67 -82 -48 -145 14 -48 59 -78 118 -78 34 0 47
6 71 31 25 27 29 39 29 86 0 49 -4 59 -34 89 -27 27 -42 34 -73 34 -21 0 -50
-8 -63 -17z"/>
<path d="M4161 1414 c-17 -14 -31 -34 -31 -45 0 -17 8 -19 105 -19 97 0 105 2
105 19 0 33 -56 71 -105 71 -32 0 -51 -7 -74 -26z"/>
<path d="M5794 1430 c-12 -4 -31 -21 -44 -37 -30 -38 -23 -104 14 -142 22 -22
35 -26 80 -26 61 0 90 18 112 71 38 90 -64 174 -162 134z"/>
<path d="M7409 1411 c-53 -53 -43 -61 76 -61 99 0 105 1 105 20 0 12 -11 32
-25 45 -19 20 -34 25 -75 25 -44 0 -56 -5 -81 -29z"/>
<path d="M9034 1422 c-26 -20 -46 -57 -37 -66 3 -3 53 -6 110 -6 117 0 126 8
74 61 -25 24 -38 29 -78 29 -30 0 -56 -7 -69 -18z"/>
<path d="M9560 1293 c-64 -5 -80 -15 -80 -54 0 -33 23 -49 73 -49 49 0 87 33
87 76 0 21 -5 33 -12 32 -7 -1 -38 -3 -68 -5z"/>
<path d="M10345 1431 c-53 -22 -80 -101 -55 -161 48 -117 220 -77 220 50 0 86
-86 143 -165 111z"/>
<path d="M12364 1406 c-29 -29 -34 -41 -34 -80 0 -57 20 -98 55 -114 68 -31
147 2 166 71 23 86 -28 157 -114 157 -31 0 -46 -7 -73 -34z"/>
<path d="M13414 1421 c-50 -31 -68 -105 -39 -161 21 -42 53 -60 103 -60 37 0
50 6 78 34 30 30 34 40 34 85 0 41 -5 56 -28 82 -36 41 -102 50 -148 20z"/>
</g>
</svg>
