<?xml version="1.0" encoding="utf-8"?>
<svg viewBox="0 0 400 130" xmlns="http://www.w3.org/2000/svg">
  <g>
    <g>
      <g>
        <polygon points="59.734,34.707 42.605,44.661 25.364,34.707 42.494,24.752 &#9;&#9;&#9;" style="fill: rgb(255, 255, 255);"/>
      </g>
      <g>
        <polygon points="60.225,35.418 60.056,56.912 42.928,66.865 43.096,45.373 &#9;&#9;&#9;" style="fill: rgb(255, 255, 255);"/>
      </g>
      <g>
        <polygon points="42.114,45.371 41.946,66.863 24.705,56.91 24.874,35.417 &#9;&#9;&#9;" style="fill: rgb(255, 255, 255);"/>
      </g>
    </g>
    <g>
      <g>
        <polygon points="79.517,45.424 71.22,50.246 62.869,45.424 71.166,40.603 &#9;&#9;&#9;" style="fill: rgb(255, 255, 255);"/>
      </g>
      <g>
        <polygon points="79.901,45.936 79.819,56.348 71.522,61.169 71.604,50.758 &#9;&#9;&#9;" style="fill: rgb(255, 255, 255);"/>
      </g>
      <g>
        <polygon points="70.836,50.757 70.755,61.168 62.404,56.347 62.485,45.936 &#9;&#9;&#9;" style="fill: rgb(255, 255, 255);"/>
      </g>
    </g>
    <g>
      <g>
        <polygon points="71.87,64.984 63.572,69.806 55.221,64.984 63.518,60.163 &#9;&#9;&#9;" style="fill: rgb(255, 255, 255);"/>
      </g>
      <g>
        <polygon points="72.253,65.496 72.171,75.907 63.875,80.729 63.957,70.317 &#9;&#9;&#9;" style="fill: rgb(255, 255, 255);"/>
      </g>
      <g>
        <polygon points="63.189,70.317 63.108,80.728 54.756,75.907 54.838,65.495 &#9;&#9;&#9;" style="fill: rgb(255, 255, 255);"/>
      </g>
    </g>
    <g>
      <g>
        <polygon points="106.245,82.982 99.101,87.135 91.91,82.982 99.054,78.832 &#9;&#9;&#9;" style="fill: rgb(255, 255, 255);"/>
      </g>
      <g>
        <polygon points="106.45,83.279 106.379,92.246 99.235,96.396 99.306,87.432 &#9;&#9;&#9;" style="fill: rgb(255, 255, 255);"/>
      </g>
      <g>
        <polygon points="98.896,87.432 98.826,96.396 91.634,92.244 91.705,83.279 &#9;&#9;&#9;" style="fill: rgb(255, 255, 255);"/>
      </g>
    </g>
    <g>
      <g>
        <polygon points="97.701,59.617 87.542,65.521 77.316,59.617 87.476,53.714 &#9;&#9;&#9;" style="fill: rgb(255, 255, 255);"/>
      </g>
      <g>
        <polygon points="97.992,60.039 97.893,72.787 87.734,78.691 87.833,65.944 &#9;&#9;&#9;" style="fill: rgb(255, 255, 255);"/>
      </g>
      <g>
        <polygon points="87.251,65.943 87.151,78.689 76.926,72.787 77.025,60.039 &#9;&#9;&#9;" style="fill: rgb(255, 255, 255);"/>
      </g>
    </g>
    <g>
      <g>
        <polygon points="87.776,81.65 77.014,87.978 66.181,81.65 76.943,75.324 &#9;&#9;&#9;" style="fill: rgb(255, 255, 255);"/>
      </g>
      <g>
        <polygon points="88.084,82.104 87.978,95.766 77.217,102.094 77.322,88.432 &#9;&#9;&#9;" style="fill: rgb(255, 255, 255);"/>
      </g>
      <g>
        <polygon points="76.706,88.431 76.6,102.092 65.767,95.766 65.873,82.102 &#9;&#9;&#9;" style="fill: rgb(255, 255, 255);"/>
      </g>
    </g>
  </g>
  <g>
    <g>
      <path d="M150.852,66.414h-22.517v11.259h22.517v5.61h-28.128v-22.48h28.128" style="fill: rgb(255, 255, 255);"/>
      <path d="M178.19,66.414h-22.518v-5.611h28.129v22.48h-28.129V69.256h15.54v5.611h-9.856v2.806h16.834V66.414z" style="fill: rgb(255, 255, 255);"/>
      <path d="M188.621,60.803h26.297v5.619H204.55l0.065,16.861h-5.614V66.414h-10.38V60.803z" style="fill: rgb(255, 255, 255);"/>
      <path d="M247.864,66.414h-22.518v11.259h22.518v5.61h-28.128v-22.48h28.128" style="fill: rgb(255, 255, 255);"/>
      <path d="M274.153,69.256v5.611h-15.858v8.416h-5.612v-22.48h5.612v8.453H274.153z" style="fill: rgb(255, 255, 255);"/>
      <path d="M284.121,83.283v-22.48h5.612v16.87h10.324V63.378h5.646v14.294h10.252v-16.87h5.647v22.48H284.121z" style="fill: rgb(255, 255, 255);"/>
      <path d="M348.94,66.414h-22.518v-5.611h28.128v22.48h-28.128V69.256h15.539v5.611h-9.854v2.806h16.833V66.414z" style="fill: rgb(255, 255, 255);"/>
      <path d="M365.02,69.22h16.868v-8.417h5.612v22.48h-28.128v-5.647h22.516v-2.769h-22.481V60.803h5.613V69.22z" style="fill: rgb(255, 255, 255);"/>
    </g>
    <rect x="273.668" y="60.803" width="5.635" height="22.48" style="fill: rgb(255, 255, 255);"/>
  </g>
</svg>